<svg width="40" height="40" viewBox="0 0 40 40" fill="none" xmlns="http://www.w3.org/2000/svg">
<circle cx="20" cy="20" r="20" fill="black"/>
<path d="M28.3141 12.1249C29.1864 13.0107 30.0603 13.884 30.9178 14.7736C31.5045 15.3824 31.8568 16.1213 31.9629 16.9675C32.1355 18.3449 31.7029 19.5038 30.7313 20.4779C29.2797 21.9333 27.8428 23.4037 26.3995 24.8676C26.0465 25.2257 25.701 25.5919 25.3386 25.9398C24.4496 26.7931 23.3897 27.1591 22.173 27.0307C21.2319 26.9315 20.4377 26.5173 19.7723 25.8364C18.919 24.9634 18.0456 24.1101 17.2073 23.2226C16.2875 22.2489 15.9566 21.0736 16.1778 19.7451C16.3125 18.9362 16.6795 18.2427 17.2452 17.6576C17.4098 17.4874 17.577 17.3198 17.7435 17.1515C17.7636 17.1311 17.7869 17.1141 17.8021 17.1012C18.4728 17.7834 19.1381 18.4598 19.8163 19.1495C19.6588 19.3063 19.4906 19.4713 19.3249 19.6387C18.8419 20.1267 18.8352 20.789 19.3138 21.2768C20.1453 22.1244 20.9785 22.9701 21.814 23.8136C22.2829 24.287 22.9355 24.2856 23.4028 23.8122C24.9903 22.2041 26.5763 20.5944 28.1629 18.9853C28.3706 18.7746 28.5793 18.565 28.7857 18.3529C29.2811 17.8436 29.2794 17.1987 28.7802 16.6918C27.9422 15.841 27.1031 14.9914 26.2641 14.1416C25.8442 13.7163 25.1561 13.7227 24.7284 14.1561C24.1725 14.7194 23.616 15.2821 23.0632 15.8484C22.999 15.9141 22.965 15.9175 22.899 15.8502C22.2806 15.2185 21.6585 14.5905 21.0379 13.9611C21.0152 13.9381 20.9964 13.9112 20.9651 13.8732C21.123 13.7164 21.2785 13.5642 21.4316 13.4095C21.8841 12.9519 22.3289 12.486 22.7894 12.0369C23.4414 11.4009 24.2235 11.0354 25.1253 10.9532C26.3625 10.8403 27.4211 11.2423 28.3141 12.1249Z" fill="#F73558"/>
<path d="M19.2562 17.2697C18.9741 16.9779 18.6991 16.6899 18.4199 16.4063C18.3089 16.2936 18.1916 16.1867 18.0717 16.0839C17.7887 15.8412 17.4623 15.8047 17.1104 15.8766C16.8829 15.923 16.7196 16.0678 16.5591 16.2191C16.4071 16.3625 16.2579 16.5089 16.1114 16.658C15.9825 16.7892 15.8617 16.9288 15.7326 17.0598C15.5496 17.2456 15.3613 17.426 15.1772 17.6106C15.0765 17.7115 14.9804 17.8171 14.8808 17.9192C14.735 18.0687 14.588 18.217 14.4415 18.3657C14.1094 18.7027 13.7772 19.0396 13.4451 19.3766C13.1312 19.6951 12.8173 20.0137 12.5034 20.3323C12.1843 20.6561 11.863 20.9777 11.5471 21.3048C11.3662 21.492 11.1689 21.6704 11.0239 21.8841C10.781 22.2422 10.7648 22.7775 11.0689 23.1318C11.2894 23.3886 11.5395 23.6193 11.7756 23.8624C12.0577 24.153 12.3379 24.4456 12.6209 24.7352C12.9374 25.059 13.2522 25.3846 13.5757 25.701C13.7085 25.8309 13.8538 25.9517 14.0082 26.0535C14.1921 26.1747 14.4094 26.1912 14.6217 26.1676C14.8866 26.1381 15.1101 26.0195 15.2983 25.819C15.5315 25.5704 15.783 25.3395 16.0227 25.097C16.102 25.0168 16.1694 24.9244 16.2456 24.8336C16.3182 24.8981 16.3613 24.9321 16.3997 24.971C16.987 25.566 17.5738 26.1616 18.1604 26.7573C18.2671 26.8656 18.267 26.8947 18.1594 27.0039C17.8037 27.365 17.4572 27.7362 17.0876 28.0819C16.9079 28.2501 16.6822 28.367 16.4819 28.5136C16.2253 28.7012 15.9292 28.8001 15.6337 28.8893C15.3722 28.9682 15.1002 29.0309 14.829 29.0532C14.296 29.0971 13.7661 29.0445 13.256 28.8724C12.8699 28.7423 12.5084 28.555 12.1806 28.3079C12.0609 28.2178 11.9468 28.1182 11.8403 28.0125C11.5404 27.7148 11.2468 27.4107 10.9489 27.1111C10.6543 26.8147 10.3557 26.5225 10.0622 26.225C9.80477 25.964 9.55926 25.6905 9.2951 25.4368C9.0516 25.203 8.8238 24.9559 8.65434 24.6644C8.49938 24.3978 8.36168 24.1186 8.24112 23.8341C7.99239 23.2473 7.97095 22.6211 8.02318 22.0008C8.05332 21.6431 8.15084 21.287 8.2975 20.9486C8.45936 20.5752 8.66404 20.2317 8.9162 19.917C9.01289 19.7963 9.12632 19.6892 9.23487 19.5786C9.6332 19.173 10.0327 18.7685 10.4317 18.3636C10.7426 18.0481 11.0535 17.7326 11.3644 17.4171C12.0566 16.7146 12.7488 16.012 13.441 15.3095C13.8693 14.8749 14.295 14.4376 14.7271 14.007C14.9859 13.7492 15.2867 13.5514 15.6096 13.3818C15.9068 13.2257 16.2171 13.1078 16.5413 13.0424C16.8307 12.9841 17.1284 12.9488 17.4232 12.9432C17.7842 12.9363 18.1428 12.9885 18.4878 13.1114C18.6563 13.1714 18.8339 13.2096 18.9955 13.2841C19.1778 13.3681 19.3468 13.4817 19.5214 13.5827C19.97 13.842 20.2979 14.2407 20.6585 14.601C20.99 14.9321 21.3165 15.2683 21.6454 15.602C22.0312 15.9936 22.4225 16.3797 22.8004 16.7789C22.9503 16.9371 23.0865 17.1142 23.2006 17.3006C23.3613 17.5631 23.5169 17.8332 23.6347 18.1171C23.7313 18.3498 23.7926 18.6041 23.8276 18.8549C23.8685 19.1477 23.8692 19.4468 23.8777 19.7435C23.8877 20.0937 23.8166 20.4341 23.6955 20.758C23.5792 21.069 23.4447 21.3753 23.2897 21.6682C23.1924 21.8521 23.0553 22.0193 22.9137 22.1728C22.6453 22.4638 22.3604 22.739 22.0835 23.0219C22.0389 23.0674 22.0004 23.0745 21.9526 23.0271C21.8513 22.9265 21.746 22.8302 21.6455 22.7288C21.3326 22.4131 21.0203 22.0967 20.7095 21.7788C20.494 21.5582 20.2823 21.3337 20.0671 21.1129C20.0108 21.0552 20.0249 21.0197 20.0795 20.9675C20.2223 20.8311 20.3576 20.6865 20.4956 20.545C20.5596 20.4794 20.6204 20.4103 20.6874 20.3479C20.8592 20.1879 20.9853 19.9975 21.0198 19.763C21.0662 19.447 21.0537 19.1356 20.823 18.8823C20.6352 18.6761 20.4407 18.4762 20.2476 18.275C20.0405 18.0594 19.8326 17.8446 19.6232 17.6313C19.5047 17.5106 19.3824 17.3938 19.2562 17.2697Z" fill="#F73558"/>
</svg>
